<svg height="16" viewBox="0 0 19 16" width="19" xmlns="http://www.w3.org/2000/svg"><path d="m7.65167 15.3606c.70211 0 1.20097-.4945 1.20097-1.1597 0-.3555-.14999-.6551-.37146-.8668l-2.1875-2.2048-3.7462-3.44747 3.7462-3.44743 2.1875-2.20793c.22147-.22146.37146-.51128.37146-.86677 0-.665289-.49886-1.1597-1.20097-1.1597-.30579 0-.60093.121601-.87167.395447l-6.39342 6.383653c-.241893.23523-.38658.56853-.38658.90273s.144687.6675.38658.90273l6.40674 6.39384c.25742.2539.55256.3822.85835.3822zm-1.72054-6.46182h11.51817c.7438 0 1.2444-.49486 1.2444-1.21695s-.5006-1.21695-1.2444-1.21695h-11.51817l-3.55755.20153c-.62708 0-1.04648.41007-1.04648 1.01542s.4194 1.01542 1.04648 1.01542z" fill-opacity=".85"/></svg>