<svg fill="none" height="216" viewBox="0 0 173 216" width="173" xmlns="http://www.w3.org/2000/svg"><path d="m116.446 37.3027-31.0962-31.09659" stroke="#000" stroke-linecap="round" stroke-width="8.77718"/><path d="m50.2407 37.6793 33.2909-33.29088" stroke="#000" stroke-linecap="round" stroke-width="8.77718"/><g fill="#4e575d"><path d="m38.0645 167.121-20.4994-23.322c-3.4165-3.877-7.295-8.536-10.18171-12.088l-.12906.061c.12906 3.878.12906 7.749.12906 11.566v23.124h-4.40146v-41.909h3.09053l19.44654 22.201c2.8256 3.219 6.7041 7.749 9.4618 11.233l.129-.068c-.129-3.742-.129-7.491-.129-11.036v-22.337h4.4014v42.568h-1.3177z"/><path d="m48.4434 166.47v-41.916h21.8782v3.81h-17.4768v15.11h14.3251v3.81h-14.3251v15.376h19.7794v3.81z"/><path d="m91.6777 167.19h-1.4468l-16.7568-42.636h4.6664l8.8708 22.595c1.3109 3.416 2.8868 7.687 4.0754 11.362h.1291c1.1818-3.681 2.7577-7.817 4.1365-11.362l8.8707-22.595h4.205l-16.7571 42.636z"/><path d="m113.358 166.47v-41.916h21.879v3.81h-17.477v15.11h14.325v3.81h-14.325v15.376h19.779v3.81z"/><path d="m153.372 128.432h-6.439v15.11h6.568c4.53 0 8.409-2.757 8.409-7.552 0-4.794-3.94-7.552-8.538-7.552m14.06 38.032-13.931-19.186h-6.568v19.186h-4.402v-41.909h11.568c6.371 0 12.287 4.203 12.287 11.362 0 5.453-3.484 9.392-8.212 10.709l14.719 19.838h-5.454z"/><path d="m13.6657 215.418c-4.97882 0-9.00669-1.569-11.39081-3.274l-.61132-4.978c3.13808 2.526 7.23387 4.299 12.21263 4.299 5.3185 0 9.1426-3.138 9.1426-7.844 0-4.707-2.6626-7.097-8.6671-9.277-7.6414-2.73-11.25494-6.411-11.25494-12.347 0-5.46 4.02788-10.846 12.68814-10.846 3.9532 0 7.3697 1.298 9.1425 2.459l-1.0256 3.885c-1.637-1.23-4.9788-2.527-8.2527-2.527-5.3185 0-8.18485 3.341-8.18485 6.751 0 3.681 2.45884 6.071 7.84515 8.048 7.6414 2.798 12.2806 6.275 12.2806 13.508 0 7.232-5.3863 12.143-13.9175 12.143"/><path d="m29.6279 171.557v3.952h14.9432v39.567h4.5713v-39.567h15.0111v-3.952z"/><path d="m87.283 174.898c-9.5501 0-18.1492 7.301-18.1492 18.486s8.5991 18.486 18.1492 18.486 18.149-7.301 18.149-18.486-8.6668-18.486-18.149-18.486zm0 40.932c-12.0089 0-22.7884-9.074-22.7884-22.582s10.7795-22.445 22.7884-22.445 22.788 9.005 22.788 22.445-10.7791 22.582-22.788 22.582z"/><path d="m128.22 175.577h-7.37v15.688h7.506c4.707 0 8.735-2.866 8.735-7.844s-4.096-7.844-8.871-7.844zm.883 19.58h-8.253v19.919h-4.571v-43.519h12.688c6.616 0 12.756 4.366 12.756 11.803s-6.072 11.803-12.62 11.803"/><path d="m156.054 215.418c-4.979 0-9.007-1.569-11.391-3.274l-.611-4.978c3.138 2.526 7.234 4.299 12.212 4.299 5.326 0 9.143-3.138 9.143-7.844 0-4.707-2.663-7.097-8.667-9.277-7.642-2.73-11.255-6.411-11.255-12.347 0-5.46 4.028-10.846 12.688-10.846 3.953 0 7.37 1.298 9.143 2.459l-1.026 3.885c-1.637-1.23-4.979-2.527-8.253-2.527-5.318 0-8.185 3.341-8.185 6.751 0 3.681 2.459 6.071 7.846 8.048 7.641 2.798 12.28 6.275 12.28 13.508 0 7.232-5.386 12.143-13.917 12.143"/><path d="m109.65 76.8857c-10.902 0-20.0037 7.8033-22.0346 18.1194-2.0377-10.3161-11.1395-18.1194-22.0413-18.1194-12.3892 0-22.4691 10.0784-22.4691 22.4659 0 12.3874 10.0799 22.4654 22.4691 22.4654 10.9018 0 20.0036-7.803 22.0413-18.119 2.0309 10.309 11.1394 18.119 22.0416 18.119 12.389 0 22.469-10.078 22.469-22.4654 0-12.3875-10.087-22.4659-22.476-22.4659zm-44.0759 40.7953c-10.1138 0-18.3394-8.224-18.3394-18.3294 0-10.1056 8.2256-18.3367 18.3394-18.3367 10.1139 0 18.3394 8.2243 18.3394 18.3367s-8.2255 18.3294-18.3394 18.3294zm44.0759 0c-10.114 0-18.3396-8.224-18.3396-18.3294 0-10.1056 8.2256-18.3367 18.3396-18.3367s18.339 8.2243 18.339 18.3367-8.225 18.3294-18.339 18.3294z"/><path d="m41.447 96.8533h-11.024v4.1357h6.9011l.0135 9.094c-3.4505 4.774-8.9659 7.606-14.8685 7.606-10.1138 0-18.33934-8.224-18.33934-18.3296s8.23234-18.3367 18.33934-18.3367c5.8143 0 11.1531 2.669 14.658 7.3143l3.3011-2.4857c-4.286-5.6979-10.8339-8.9646-17.9591-8.9646-12.3892 0-22.4691 10.0784-22.4691 22.4659 0 12.3874 10.0799 22.4654 22.4691 22.4654 7.4784 0 14.4406-3.701 18.6315-9.901l.2785-.408.0951-.774-.0204-13.8817z"/><path d="m147.489 76.8857c-3.389 0-6.677.7607-9.652 2.1733-1.46.6927-2.846 1.5484-4.129 2.5467v35.4913c1.283.999 2.669 1.848 4.129 2.547 2.975 1.42 6.263 2.173 9.652 2.173 12.389 0 22.469-10.078 22.469-22.4654 0-12.3875-10.08-22.4659-22.469-22.4659zm0 40.8023c-3.464 0-6.792-.971-9.652-2.75v-31.1658c2.867-1.7793 6.195-2.7505 9.652-2.7505 10.114 0 18.34 8.2243 18.34 18.3299 0 10.1054-8.226 18.3364-18.34 18.3364z"/></g></svg>