<svg width="379" height="154" viewBox="0 0 379 154" fill="none" xmlns="http://www.w3.org/2000/svg">
<path d="M9.8472 35.0586V6.05118H-0.000423594V0.463882H27.0282V6.05118H17.1805V35.0586H9.8472ZM31.8294 35.0586V0.463882H39.1394V14.921H52.7119V0.463882H59.9754V35.0586H52.7119V20.2755H39.1394V35.0586H31.8294ZM67.7503 35.0586V0.463882H88.8657V5.95806H75.0138V14.6417H85.5133V20.0194H75.0138V29.448H90.3324V35.0586H67.7503ZM101.992 17.9242C101.992 14.8201 102.434 12.1429 103.319 9.89245C104.203 7.64201 105.43 5.7951 106.997 4.35171C108.565 2.89281 110.388 1.82191 112.468 1.13902C114.548 0.440602 116.783 0.0913945 119.173 0.0913945C120.896 0.0913945 122.308 0.168996 123.41 0.324199C124.512 0.479401 125.49 0.665645 126.343 0.88293C127.197 1.08469 128.097 1.27094 129.044 1.44166L128.811 7.68082C127.818 7.16864 126.584 6.72632 125.109 6.35383C123.635 5.98134 121.695 5.7951 119.289 5.7951C117.272 5.7951 115.526 6.25295 114.051 7.16864C112.592 8.08434 111.459 9.40357 110.652 11.1263C109.845 12.8335 109.442 14.8977 109.442 17.3189C109.442 19.709 109.775 21.8586 110.443 23.7676C111.11 25.6766 112.111 27.1898 113.446 28.3073C114.781 29.4092 116.441 29.9602 118.428 29.9602C119.669 29.9602 120.787 29.8826 121.78 29.7274C122.774 29.5567 123.573 29.3238 124.178 29.029V21.0671L125.226 22.0681L118.73 21.6956V16.4343H130.929V33.0332C130.34 33.0487 129.703 33.1806 129.02 33.429C128.353 33.6773 127.569 33.9567 126.669 34.2671C125.769 34.5775 124.667 34.8491 123.363 35.0819C122.06 35.3147 120.461 35.4311 118.568 35.4311C115.138 35.4311 112.181 34.7171 109.698 33.2893C107.23 31.8459 105.329 29.8127 103.994 27.1898C102.659 24.5514 101.992 21.4628 101.992 17.9242ZM137.455 35.0586V0.463882H144.672V29.2152H157.174V35.0586H137.455ZM174.953 35.4311C171.632 35.4932 168.776 34.787 166.386 33.3126C163.996 31.8226 162.18 29.7274 160.939 27.0268C159.697 24.3108 159.107 21.1524 159.169 17.5517C159.247 13.563 160.007 10.296 161.451 7.75065C162.894 5.18981 164.842 3.28857 167.294 2.04695C169.746 0.805329 172.525 0.153477 175.629 0.0913945C178.81 0.0293142 181.557 0.719967 183.87 2.16335C186.198 3.59122 187.975 5.6399 189.201 8.30939C190.443 10.9634 191.025 14.0985 190.947 17.7147C190.869 21.7034 190.14 25.0014 188.759 27.6089C187.377 30.2007 185.499 32.1408 183.125 33.429C180.75 34.7016 178.026 35.369 174.953 35.4311ZM175.093 30.0766C177.685 30.0766 179.741 29.06 181.262 27.0268C182.783 24.9937 183.544 21.812 183.544 17.4819C183.544 15.2159 183.241 13.1828 182.636 11.3824C182.046 9.58205 181.154 8.16194 179.959 7.12208C178.764 6.06671 177.266 5.53902 175.466 5.53902C173.851 5.53902 172.369 5.94254 171.019 6.7496C169.684 7.55665 168.613 8.86036 167.806 10.6607C166.999 12.4611 166.596 14.8512 166.596 17.8311C166.596 20.1126 166.914 22.1768 167.55 24.0237C168.187 25.8706 169.133 27.345 170.39 28.447C171.648 29.5334 173.215 30.0766 175.093 30.0766ZM197.117 35.0586V0.417322L200.632 0.463882C201.408 0.463882 202.2 0.440602 203.007 0.39404C203.814 0.33196 204.683 0.277639 205.614 0.231078C206.545 0.168996 207.593 0.137955 208.757 0.137955C211.721 0.137955 214.127 0.494921 215.974 1.20885C217.836 1.90727 219.194 2.90057 220.048 4.18875C220.902 5.47693 221.328 6.99792 221.328 8.75171C221.328 9.91573 221.134 11.041 220.746 12.1274C220.374 13.1983 219.8 14.1295 219.024 14.921C218.248 15.7126 217.27 16.2713 216.09 16.5972C217.456 16.7369 218.682 17.1715 219.769 17.9009C220.855 18.6149 221.716 19.5538 222.353 20.7179C222.989 21.8664 223.307 23.1623 223.307 24.6057C223.307 26.7164 222.88 28.5789 222.027 30.193C221.189 31.8071 219.738 33.0798 217.673 34.011C215.625 34.9267 212.769 35.3845 209.106 35.3845C207.616 35.3845 206.08 35.338 204.497 35.2448C202.929 35.1672 201.687 35.1052 200.772 35.0586H197.117ZM204.357 14.8279C204.636 14.8745 204.97 14.9133 205.358 14.9443C205.746 14.9598 206.15 14.9753 206.569 14.9909C207.003 14.9909 207.407 14.9909 207.779 14.9909C208.167 14.9909 208.509 14.9909 208.804 14.9909C210.542 14.9909 211.892 14.5641 212.854 13.7104C213.832 12.8568 214.321 11.46 214.321 9.51997C214.321 7.9369 213.762 6.80392 212.645 6.12103C211.543 5.43813 209.944 5.09669 207.849 5.09669C207.616 5.09669 207.251 5.11221 206.755 5.14325C206.258 5.15877 205.777 5.18981 205.311 5.23637C204.846 5.26741 204.528 5.32173 204.357 5.39933V14.8279ZM204.357 29.9369C204.574 30.0766 204.962 30.1852 205.521 30.2628C206.095 30.3404 206.708 30.3947 207.36 30.4258C208.012 30.4568 208.594 30.4723 209.106 30.4723C211.31 30.4723 212.994 30.0533 214.158 29.2152C215.322 28.3616 215.904 26.9182 215.904 24.885C215.904 23.1313 215.353 21.8276 214.251 20.9739C213.165 20.1203 211.419 19.6935 209.013 19.6935C208.672 19.6935 208.276 19.6935 207.826 19.6935C207.391 19.6935 206.941 19.7013 206.475 19.7168C206.025 19.7323 205.614 19.7478 205.242 19.7634C204.869 19.7789 204.574 19.8099 204.357 19.8565V29.9369ZM232.755 35.0586H225.095L237.62 0.161236H245.489L257.991 35.0586H250.215L242.556 10.5676L241.485 6.56335L240.391 10.5676L232.755 35.0586ZM232.196 27.7253L233.15 22.5337H249.028L249.982 27.7253H232.196ZM261.769 35.0586V0.463882H268.986V29.2152H281.488V35.0586H261.769ZM10.243 94.0586H2.95619V59.4639C3.2666 59.4639 3.56924 59.4639 3.86413 59.4639C4.17453 59.4639 4.47718 59.4639 4.77206 59.4639C5.08247 59.4639 5.39288 59.4639 5.70328 59.4639C6.88282 59.4639 8.25637 59.4018 9.82392 59.2776C11.3915 59.1535 13.2694 59.0914 15.4578 59.0914C17.0719 59.0914 18.6239 59.2699 20.1139 59.6268C21.6038 59.9683 22.9308 60.5425 24.0948 61.3496C25.2744 62.1411 26.2056 63.212 26.8885 64.5623C27.5714 65.9126 27.9128 67.5888 27.9128 69.5909C27.9128 71.8413 27.5403 73.7115 26.7953 75.2014C26.0504 76.6759 25.0028 77.8321 23.6525 78.6702C22.3177 79.4928 20.7502 80.0438 18.9498 80.3231C18.329 80.4163 17.7005 80.5094 17.0641 80.6025C16.4278 80.6801 15.5897 80.75 14.5498 80.812C13.51 80.8586 12.0744 80.8819 10.243 80.8819V94.0586ZM10.243 75.7602C10.5689 75.8067 11.0267 75.8455 11.6165 75.8766C12.2063 75.9076 12.8038 75.9231 13.4091 75.9231C14.0299 75.9231 14.5266 75.9231 14.899 75.9231C16.8701 75.9231 18.3446 75.3722 19.3223 74.2702C20.3156 73.1528 20.8123 71.6551 20.8123 69.7771C20.8123 68.7217 20.626 67.7828 20.2535 66.9602C19.8966 66.1221 19.2602 65.4702 18.3446 65.0046C17.4289 64.5235 16.1484 64.2829 14.5033 64.2829C13.7738 64.2829 13.0366 64.3217 12.2916 64.3993C11.5467 64.4614 10.8638 64.5623 10.243 64.702V75.7602ZM22.2091 94.0586C22.0073 93.7947 21.8289 93.4999 21.6737 93.1739C21.534 92.8325 21.2934 92.2893 20.952 91.5443C20.4708 90.5044 20.0207 89.3792 19.6017 88.1686C19.1982 86.9581 18.7714 85.8018 18.3213 84.6999C17.8712 83.5979 17.3513 82.6822 16.7615 81.9528C16.1717 81.2233 15.4578 80.8276 14.6197 80.7655L16.6684 79.1591L21.208 78.8565C22.0927 79.2445 22.8687 79.9119 23.5361 80.8586C24.219 81.7898 24.8398 82.8685 25.3985 84.0946C25.9728 85.3207 26.5315 86.5856 27.0747 87.8893C27.6334 89.193 28.231 90.4036 28.8673 91.521C29.1001 91.9556 29.3329 92.3824 29.5657 92.8015C29.814 93.2205 30.0546 93.6395 30.2874 94.0586H22.2091ZM35.2851 94.0586V59.4639H56.4004V64.9581H42.5486V73.6417H53.048V79.0194H42.5486V88.448H57.8671V94.0586H35.2851ZM70.3672 94.0586V65.0512H60.5196V59.4639H87.5482V65.0512H77.7005V94.0586H70.3672ZM93.3904 94.0586H85.7312L98.2561 59.1612H106.125L118.626 94.0586H110.851L103.192 69.5676L102.121 65.5634L101.026 69.5676L93.3904 94.0586ZM92.8317 86.7253L93.7862 81.5337H109.663L110.618 86.7253H92.8317ZM122.917 94.0586V59.4639H130.274V94.0586H122.917ZM138.592 94.0586V59.4639H145.809V88.2152H158.31V94.0586H138.592ZM170.966 94.0586V59.4639H191.895V64.9581H178.253V74.3634H188.543V79.811H178.253V94.0586H170.966ZM196.52 94.0586V59.4639H217.636V64.9581H203.784V73.6417H214.283V79.0194H203.784V88.448H219.102V94.0586H196.52ZM234.047 94.4311C232.448 94.4311 230.935 94.3147 229.507 94.0819C228.079 93.8491 226.845 93.5697 225.805 93.2438C224.766 92.9179 224.028 92.623 223.594 92.3591L224.688 86.5856C225.262 86.927 226.015 87.2685 226.946 87.6099C227.893 87.9358 228.933 88.2152 230.066 88.448C231.199 88.6653 232.34 88.7739 233.488 88.7739C235.335 88.7739 236.708 88.4868 237.609 87.9126C238.509 87.3383 238.959 86.4149 238.959 85.1422C238.959 84.242 238.711 83.4893 238.214 82.884C237.717 82.2632 236.934 81.6579 235.863 81.0681C234.807 80.4783 233.434 79.7799 231.742 78.9729C230.299 78.2745 228.941 77.4441 227.668 76.4819C226.395 75.5196 225.363 74.3711 224.572 73.0364C223.78 71.7016 223.384 70.1418 223.384 68.357C223.384 66.7429 223.695 65.3538 224.316 64.1898C224.952 63.0103 225.821 62.048 226.923 61.303C228.025 60.5425 229.298 59.9838 230.741 59.6268C232.2 59.2699 233.76 59.0914 235.42 59.0914C237.81 59.0914 239.774 59.3164 241.31 59.7665C242.847 60.2166 243.918 60.6357 244.523 61.0237L243.289 66.5644C242.56 66.0367 241.551 65.5634 240.263 65.1443C238.974 64.7097 237.5 64.4925 235.839 64.4925C234.737 64.4925 233.775 64.6244 232.953 64.8882C232.146 65.1521 231.517 65.5401 231.067 66.0522C230.617 66.5489 230.392 67.1619 230.392 67.8914C230.392 68.7605 230.601 69.5055 231.02 70.1263C231.455 70.7316 232.138 71.3214 233.069 71.8956C234 72.4544 235.211 73.0985 236.701 73.8279C238.051 74.4642 239.3 75.1316 240.449 75.83C241.597 76.5129 242.606 77.2656 243.475 78.0882C244.344 78.9108 245.02 79.8498 245.501 80.9052C245.982 81.9605 246.222 83.1711 246.222 84.5369C246.222 86.6166 245.734 88.4015 244.756 89.8914C243.778 91.3658 242.373 92.491 240.542 93.2671C238.726 94.0431 236.561 94.4311 234.047 94.4311ZM258.839 94.0586V65.0512H248.991V59.4639H276.02V65.0512H266.172V94.0586H258.839ZM281.333 94.0586V59.4639H288.69V94.0586H281.333ZM305.855 94.2216L293.12 59.4639H300.872L307.414 79.0893L309.09 85.3517L310.767 79.0893L316.959 59.4639H324.665L312.117 94.2216H305.855ZM330.196 94.0586H322.537L335.062 59.1612H342.93L355.432 94.0586H347.656L339.997 69.5676L338.926 65.5634L337.832 69.5676L330.196 94.0586ZM329.637 86.7253L330.592 81.5337H346.469L347.424 86.7253H329.637ZM359.21 94.0586V59.4639H366.427V88.2152H378.929V94.0586H359.21ZM2.79323 153.059L1.97841 150.312C3.4218 149.349 4.89623 148.24 6.40169 146.982C7.90716 145.725 9.34279 144.375 10.7086 142.932C12.0744 141.488 13.3005 139.991 14.3869 138.438C15.4733 136.871 16.3269 135.296 16.9477 133.713C17.5841 132.129 17.9022 130.577 17.9022 129.056C17.9022 126.977 17.3823 125.386 16.3424 124.284C15.3181 123.182 13.8825 122.631 12.0356 122.631C10.4525 122.631 8.97806 122.957 7.61228 123.609C6.26201 124.245 5.17559 124.998 4.35302 125.867L2.09481 122.631C2.70011 121.995 3.50716 121.335 4.51598 120.652C5.54032 119.954 6.75866 119.372 8.17101 118.906C9.58335 118.425 11.1664 118.185 12.9202 118.185C15.3879 118.185 17.4056 118.658 18.9731 119.605C20.5562 120.551 21.7202 121.824 22.4652 123.423C23.2102 125.021 23.5826 126.806 23.5826 128.777C23.5826 131.105 23.0162 133.464 21.8832 135.854C20.7657 138.244 19.2137 140.541 17.2271 142.745C15.256 144.934 12.9745 146.928 10.3826 148.728L24.9096 148.519V153.059H2.79323ZM31.53 153.059L30.7152 150.312C32.1586 149.349 33.633 148.24 35.1385 146.982C36.6439 145.725 38.0796 144.375 39.4453 142.932C40.8111 141.488 42.0372 139.991 43.1237 138.438C44.2101 136.871 45.0637 135.296 45.6845 133.713C46.3208 132.129 46.639 130.577 46.639 129.056C46.639 126.977 46.1191 125.386 45.0792 124.284C44.0549 123.182 42.6192 122.631 40.7723 122.631C39.1893 122.631 37.7148 122.957 36.349 123.609C34.9988 124.245 33.9124 124.998 33.0898 125.867L30.8316 122.631C31.4369 121.995 32.2439 121.335 33.2528 120.652C34.2771 119.954 35.4954 119.372 36.9078 118.906C38.3201 118.425 39.9032 118.185 41.657 118.185C44.1247 118.185 46.1423 118.658 47.7099 119.605C49.293 120.551 50.457 121.824 51.202 123.423C51.9469 125.021 52.3194 126.806 52.3194 128.777C52.3194 131.105 51.7529 133.464 50.6199 135.854C49.5025 138.244 47.9505 140.541 45.9639 142.745C43.9928 144.934 41.7113 146.928 39.1194 148.728L53.6464 148.519V153.059H31.53ZM69.0988 140.022V135.691H88.4215V140.022H69.0988ZM104.691 153.059L103.876 150.312C105.319 149.349 106.794 148.24 108.299 146.982C109.804 145.725 111.24 144.375 112.606 142.932C113.972 141.488 115.198 139.991 116.284 138.438C117.371 136.871 118.224 135.296 118.845 133.713C119.481 132.129 119.8 130.577 119.8 129.056C119.8 126.977 119.28 125.386 118.24 124.284C117.215 123.182 115.78 122.631 113.933 122.631C112.35 122.631 110.875 122.957 109.51 123.609C108.159 124.245 107.073 124.998 106.25 125.867L103.992 122.631C104.597 121.995 105.404 121.335 106.413 120.652C107.438 119.954 108.656 119.372 110.068 118.906C111.481 118.425 113.064 118.185 114.818 118.185C117.285 118.185 119.303 118.658 120.87 119.605C122.454 120.551 123.618 121.824 124.363 123.423C125.107 125.021 125.48 126.806 125.48 128.777C125.48 131.105 124.913 133.464 123.78 135.854C122.663 138.244 121.111 140.541 119.124 142.745C117.153 144.934 114.872 146.928 112.28 148.728L126.807 148.519V153.059H104.691ZM133.195 140.022C133.195 137.523 133.575 135.187 134.335 133.014C135.096 130.826 136.12 128.831 137.408 127.031C138.712 125.215 140.186 123.624 141.832 122.259C143.477 120.893 145.192 119.775 146.977 118.906C148.777 118.037 150.531 117.44 152.238 117.114L153.658 120.513C151.516 121.087 149.561 121.971 147.791 123.167C146.022 124.346 144.493 125.735 143.205 127.334C141.917 128.917 140.908 130.609 140.179 132.409C139.465 134.209 139.084 136.01 139.038 137.81C138.976 139.905 139.123 141.861 139.48 143.677C139.853 145.477 140.536 146.928 141.529 148.03C142.522 149.132 143.927 149.683 145.743 149.683C147.155 149.683 148.327 149.31 149.258 148.565C150.189 147.82 150.88 146.85 151.33 145.655C151.796 144.445 152.028 143.157 152.028 141.791C152.028 139.944 151.788 138.501 151.307 137.461C150.841 136.421 150.228 135.691 149.468 135.272C148.707 134.853 147.9 134.644 147.046 134.644C146.146 134.644 145.355 134.76 144.672 134.993C143.989 135.226 143.477 135.451 143.135 135.668L141.762 132.479C142.041 132.199 142.483 131.912 143.089 131.617C143.694 131.307 144.423 131.043 145.277 130.826C146.146 130.609 147.116 130.5 148.187 130.5C150.174 130.5 151.858 130.965 153.239 131.897C154.62 132.828 155.668 134.07 156.382 135.622C157.111 137.158 157.476 138.842 157.476 140.673C157.476 142.319 157.22 143.909 156.708 145.446C156.211 146.967 155.451 148.333 154.426 149.543C153.402 150.738 152.114 151.685 150.562 152.383C149.01 153.082 147.186 153.431 145.091 153.431C142.608 153.431 140.474 152.818 138.689 151.592C136.919 150.366 135.561 148.736 134.615 146.703C133.668 144.654 133.195 142.427 133.195 140.022ZM173.54 153.059V118.464H193.608V122.654H179.034V133.596H189.93V137.787H179.034V153.059H173.54ZM198.139 153.059V118.464H218.254V122.654H203.633V133.177H214.482V137.321H203.633V148.775H219.883V153.059H198.139ZM225.951 153.059V118.417L228.512 118.464C229.272 118.464 230.048 118.441 230.84 118.394C231.631 118.332 232.485 118.278 233.401 118.231C234.316 118.169 235.341 118.138 236.474 118.138C239.128 118.138 241.308 118.479 243.016 119.162C244.723 119.845 245.988 120.807 246.81 122.049C247.633 123.275 248.044 124.719 248.044 126.379C248.044 127.466 247.858 128.568 247.485 129.685C247.128 130.803 246.562 131.788 245.786 132.642C245.01 133.48 244.009 134.062 242.783 134.388C244.195 134.465 245.46 134.9 246.577 135.691C247.71 136.467 248.611 137.468 249.278 138.695C249.945 139.905 250.279 141.224 250.279 142.652C250.279 144.747 249.86 146.602 249.022 148.216C248.184 149.83 246.748 151.095 244.715 152.011C242.682 152.927 239.865 153.385 236.264 153.385C234.914 153.385 233.517 153.338 232.074 153.245C230.63 153.167 229.49 153.105 228.652 153.059H225.951ZM231.352 133.247C231.771 133.309 232.237 133.356 232.749 133.387C233.261 133.402 233.789 133.41 234.332 133.41C234.875 133.394 235.395 133.387 235.892 133.387C236.404 133.371 236.87 133.363 237.289 133.363C238.872 133.363 240.175 132.851 241.2 131.827C242.24 130.803 242.759 129.235 242.759 127.124C242.759 125.37 242.139 124.074 240.897 123.236C239.655 122.398 237.878 121.979 235.566 121.979C235.286 121.979 234.844 121.995 234.239 122.026C233.649 122.041 233.075 122.072 232.516 122.119C231.957 122.165 231.569 122.228 231.352 122.305V133.247ZM231.352 148.938C231.616 149.093 232.074 149.21 232.726 149.287C233.377 149.365 234.076 149.419 234.821 149.45C235.581 149.466 236.233 149.473 236.776 149.473C239.275 149.473 241.231 149.016 242.643 148.1C244.055 147.184 244.762 145.555 244.762 143.211C244.762 141.116 244.125 139.595 242.853 138.648C241.595 137.686 239.632 137.205 236.963 137.205C236.528 137.205 236.047 137.205 235.519 137.205C235.007 137.189 234.487 137.189 233.959 137.205C233.447 137.205 232.966 137.212 232.516 137.228C232.066 137.243 231.678 137.274 231.352 137.321V148.938ZM264.425 153.059L263.61 150.312C265.054 149.349 266.528 148.24 268.034 146.982C269.539 145.725 270.975 144.375 272.341 142.932C273.706 141.488 274.932 139.991 276.019 138.438C277.105 136.871 277.959 135.296 278.58 133.713C279.216 132.129 279.534 130.577 279.534 129.056C279.534 126.977 279.014 125.386 277.974 124.284C276.95 123.182 275.514 122.631 273.668 122.631C272.084 122.631 270.61 122.957 269.244 123.609C267.894 124.245 266.808 124.998 265.985 125.867L263.727 122.631C264.332 121.995 265.139 121.335 266.148 120.652C267.172 119.954 268.391 119.372 269.803 118.906C271.215 118.425 272.798 118.185 274.552 118.185C277.02 118.185 279.038 118.658 280.605 119.605C282.188 120.551 283.352 121.824 284.097 123.423C284.842 125.021 285.215 126.806 285.215 128.777C285.215 131.105 284.648 133.464 283.515 135.854C282.398 138.244 280.846 140.541 278.859 142.745C276.888 144.934 274.606 146.928 272.015 148.728L286.542 148.519V153.059H264.425ZM305.151 153.431C302.87 153.431 300.922 152.934 299.308 151.941C297.709 150.948 296.413 149.605 295.42 147.914C294.427 146.206 293.705 144.266 293.255 142.094C292.82 139.905 292.619 137.624 292.65 135.249C292.696 131.726 293.294 128.676 294.442 126.1C295.591 123.508 297.135 121.506 299.075 120.094C301.031 118.681 303.242 117.975 305.71 117.975C308.038 117.975 309.986 118.433 311.553 119.349C313.137 120.264 314.401 121.529 315.348 123.143C316.295 124.742 316.97 126.597 317.374 128.707C317.777 130.803 317.971 133.045 317.956 135.435C317.925 139.005 317.374 142.14 316.303 144.841C315.232 147.541 313.742 149.652 311.833 151.173C309.924 152.678 307.697 153.431 305.151 153.431ZM305.314 148.542C307.642 148.589 309.388 147.526 310.552 145.353C311.716 143.18 312.298 139.967 312.298 135.715C312.298 133.231 312.058 131.028 311.577 129.103C311.096 127.179 310.343 125.665 309.319 124.563C308.31 123.446 307.006 122.887 305.407 122.887C303.11 122.887 301.357 123.943 300.146 126.053C298.951 128.164 298.353 131.167 298.353 135.063C298.353 137.468 298.602 139.688 299.098 141.721C299.595 143.754 300.356 145.392 301.38 146.633C302.404 147.859 303.716 148.496 305.314 148.542ZM324.9 153.059L324.085 150.312C325.528 149.349 327.003 148.24 328.508 146.982C330.014 145.725 331.449 144.375 332.815 142.932C334.181 141.488 335.407 139.991 336.493 138.438C337.58 136.871 338.433 135.296 339.054 133.713C339.691 132.129 340.009 130.577 340.009 129.056C340.009 126.977 339.489 125.386 338.449 124.284C337.425 123.182 335.989 122.631 334.142 122.631C332.559 122.631 331.085 122.957 329.719 123.609C328.369 124.245 327.282 124.998 326.46 125.867L324.201 122.631C324.807 121.995 325.614 121.335 326.622 120.652C327.647 119.954 328.865 119.372 330.278 118.906C331.69 118.425 333.273 118.185 335.027 118.185C337.494 118.185 339.512 118.658 341.08 119.605C342.663 120.551 343.827 121.824 344.572 123.423C345.317 125.021 345.689 126.806 345.689 128.777C345.689 131.105 345.123 133.464 343.99 135.854C342.872 138.244 341.32 140.541 339.334 142.745C337.363 144.934 335.081 146.928 332.489 148.728L347.016 148.519V153.059H324.9ZM353.404 140.022C353.404 137.523 353.784 135.187 354.544 133.014C355.305 130.826 356.329 128.831 357.617 127.031C358.921 125.215 360.396 123.624 362.041 122.259C363.686 120.893 365.401 119.775 367.186 118.906C368.986 118.037 370.74 117.44 372.447 117.114L373.867 120.513C371.725 121.087 369.77 121.971 368.001 123.167C366.231 124.346 364.702 125.735 363.414 127.334C362.126 128.917 361.117 130.609 360.388 132.409C359.674 134.209 359.294 136.01 359.247 137.81C359.185 139.905 359.332 141.861 359.689 143.677C360.062 145.477 360.745 146.928 361.738 148.03C362.731 149.132 364.136 149.683 365.952 149.683C367.364 149.683 368.536 149.31 369.467 148.565C370.398 147.82 371.089 146.85 371.539 145.655C372.005 144.445 372.238 143.157 372.238 141.791C372.238 139.944 371.997 138.501 371.516 137.461C371.05 136.421 370.437 135.691 369.677 135.272C368.916 134.853 368.109 134.644 367.256 134.644C366.355 134.644 365.564 134.76 364.881 134.993C364.198 135.226 363.686 135.451 363.344 135.668L361.971 132.479C362.25 132.199 362.693 131.912 363.298 131.617C363.903 131.307 364.633 131.043 365.486 130.826C366.355 130.609 367.325 130.5 368.396 130.5C370.383 130.5 372.067 130.965 373.448 131.897C374.829 132.828 375.877 134.07 376.591 135.622C377.32 137.158 377.685 138.842 377.685 140.673C377.685 142.319 377.429 143.909 376.917 145.446C376.42 146.967 375.66 148.333 374.635 149.543C373.611 150.738 372.323 151.685 370.771 152.383C369.219 153.082 367.395 153.431 365.3 153.431C362.817 153.431 360.683 152.818 358.898 151.592C357.129 150.366 355.771 148.736 354.824 146.703C353.877 144.654 353.404 142.427 353.404 140.022Z" fill="black"/>
</svg>
