<svg fill="none" height="154" viewBox="0 0 379 154" width="379" xmlns="http://www.w3.org/2000/svg"><path d="m9.8472 35.0586v-29.00742h-9.84762359v-5.587298h27.02862359v5.587298h-9.8477v29.00742zm21.9822 0v-34.594718h7.31v14.457118h13.5725v-14.457118h7.2635v34.594718h-7.2635v-14.7831h-13.5725v14.7831zm35.9209 0v-34.594718h21.1154v5.494178h-13.8519v8.68364h10.4995v5.3777h-10.4995v9.4286h15.3186v5.6106zm34.2417-17.1344c0-3.1041.442-5.7813 1.327-8.03175.884-2.25044 2.111-4.09735 3.678-5.54074 1.568-1.4589 3.391-2.5298 5.471-3.21269 2.08-.698418 4.315-1.0476255 6.705-1.0476255 1.723 0 3.135.0776015 4.237.2328045 1.102.155202 2.08.341446 2.933.558731.854.20176 1.754.38801 2.701.55873l-.233 6.23916c-.993-.51218-2.227-.9545-3.702-1.32699-1.474-.37249-3.414-.55873-5.82-.55873-2.017 0-3.763.45785-5.238 1.37354-1.459.9157-2.592 2.23493-3.399 3.95766-.807 1.7072-1.21 3.7714-1.21 6.1926 0 2.3901.333 4.5397 1.001 6.4487.667 1.909 1.668 3.4222 3.003 4.5397 1.335 1.1019 2.995 1.6529 4.982 1.6529 1.241 0 2.359-.0776 3.352-.2328.994-.1707 1.793-.4036 2.398-.6984v-7.9619l1.048 1.001-6.496-.3725v-5.2613h12.199v16.5989c-.589.0155-1.226.1474-1.909.3958-.667.2483-1.451.5277-2.351.8381s-2.002.582-3.306.8148c-1.303.2328-2.902.3492-4.795.3492-3.43 0-6.387-.714-8.87-2.1418-2.468-1.4434-4.369-3.4766-5.704-6.0995-1.335-2.6384-2.002-5.727-2.002-9.2656zm35.463 17.1344v-34.594718h7.217v28.751318h12.502v5.8434zm37.498.3725c-3.321.0621-6.177-.6441-8.567-2.1185-2.39-1.49-4.206-3.5852-5.447-6.2858-1.242-2.716-1.832-5.8744-1.77-9.4751.078-3.9887.838-7.2557 2.282-9.80105 1.443-2.56084 3.391-4.46208 5.843-5.7037 2.452-1.241621 5.231-1.893473 8.335-1.9555555 3.181-.0620803 5.928.6285725 8.241 2.0719555 2.328 1.42787 4.105 3.47655 5.331 6.14604 1.242 2.65401 1.824 5.78911 1.746 9.40531-.078 3.9887-.807 7.2867-2.188 9.8942-1.382 2.5918-3.26 4.5319-5.634 5.8201-2.375 1.2726-5.099 1.94-8.172 2.0021zm.14-5.3545c2.592 0 4.648-1.0166 6.169-3.0498 1.521-2.0331 2.282-5.2148 2.282-9.5449 0-2.266-.303-4.2991-.908-6.0995-.59-1.80035-1.482-3.22046-2.677-4.26032-1.195-1.05537-2.693-1.58306-4.493-1.58306-1.615 0-3.097.40352-4.447 1.21058-1.335.80705-2.406 2.11076-3.213 3.9111-.807 1.8004-1.21 4.1905-1.21 7.1704 0 2.2815.318 4.3457.954 6.1926.637 1.8469 1.583 3.3213 2.84 4.4233 1.258 1.0864 2.825 1.6296 4.703 1.6296zm22.024 4.982v-34.641278l3.515.04656c.776 0 1.568-.02328 2.375-.069842.807-.06208 1.676-.116401 2.607-.162962.931-.062082 1.979-.093123 3.143-.093123 2.964 0 5.37.356966 7.217 1.070895 1.862.69842 3.22 1.69172 4.074 2.9799s1.28 2.80917 1.28 4.56296c0 1.16402-.194 2.28929-.582 3.37569-.372 1.0709-.946 2.0021-1.722 2.7936-.776.7916-1.754 1.3503-2.934 1.6762 1.366.1397 2.592.5743 3.679 1.3037 1.086.714 1.947 1.6529 2.584 2.817.636 1.1485.954 2.4444.954 3.8878 0 2.1107-.427 3.9732-1.28 5.5873-.838 1.6141-2.289 2.8868-4.354 3.818-2.048.9157-4.904 1.3735-8.567 1.3735-1.49 0-3.026-.0465-4.609-.1397-1.568-.0776-2.81-.1396-3.725-.1862zm7.24-20.2307c.279.0466.613.0854 1.001.1164.388.0155.792.031 1.211.0466h1.21 1.025c1.738 0 3.088-.4268 4.05-1.2805.978-.8536 1.467-2.2504 1.467-4.19043 0-1.58307-.559-2.71605-1.676-3.39894-1.102-.6829-2.701-1.02434-4.796-1.02434-.233 0-.598.01552-1.094.04656-.497.01552-.978.04656-1.444.09312-.465.03104-.783.08536-.954.16296zm0 15.109c.217.1397.605.2483 1.164.3259.574.0776 1.187.1319 1.839.163.652.031 1.234.0465 1.746.0465 2.204 0 3.888-.419 5.052-1.2571 1.164-.8536 1.746-2.297 1.746-4.3302 0-1.7537-.551-3.0574-1.653-3.9111-1.086-.8536-2.832-1.2804-5.238-1.2804-.341 0-.737 0-1.187 0-.435 0-.885.0078-1.351.0233-.45.0155-.861.031-1.233.0466-.373.0155-.668.0465-.885.0931zm28.398 5.1217h-7.66l12.525-34.897364h7.869l12.502 34.897364h-7.776l-7.659-24.491-1.071-4.00425-1.094 4.00425zm-.559-7.3333.954-5.1916h15.878l.954 5.1916zm29.573 7.3333v-34.594718h7.217v28.751318h12.502v5.8434zm-251.526 59h-7.28681v-34.5947h.90794.90793.93122c1.17954 0 2.55309-.0621 4.12064-.1863 1.56758-.1241 3.44548-.1862 5.63388-.1862 1.6141 0 3.1661.1785 4.6561.5354 1.4899.3415 2.8169.9157 3.9809 1.7228 1.1796.7915 2.1108 1.8624 2.7937 3.2127s1.0243 3.0265 1.0243 5.0286c0 2.2504-.3725 4.1206-1.1175 5.6105-.7449 1.4745-1.7925 2.6307-3.1428 3.4688-1.3348.8226-2.9023 1.3736-4.7027 1.6529-.6208.0932-1.2493.1863-1.8857.2794-.6363.0776-1.4744.1475-2.5143.2095-1.0398.0466-2.4754.0699-4.3068.0699zm0-18.2984c.3259.0465.7837.0853 1.3735.1164.5898.031 1.1873.0465 1.7926.0465h1.4899c1.9711 0 3.4456-.5509 4.4233-1.6529.9933-1.1174 1.49-2.6151 1.49-4.4931 0-1.0554-.1863-1.9943-.5588-2.8169-.3569-.8381-.9933-1.49-1.9089-1.9556-.9157-.4811-2.1962-.7217-3.8413-.7217-.7295 0-1.4667.0388-2.2117.1164-.7449.0621-1.4278.163-2.0486.3027zm11.9661 18.2984c-.2018-.2639-.3802-.5587-.5354-.8847-.1397-.3414-.3803-.8846-.7217-1.6296-.4812-1.0399-.9313-2.1651-1.3503-3.3757-.4035-1.2105-.8303-2.3668-1.2804-3.4687-.4501-1.102-.97-2.0177-1.5598-2.7471-.5898-.7295-1.3037-1.1252-2.1418-1.1873l2.0487-1.6064 4.5396-.3026c.8847.388 1.6607 1.0554 2.3281 2.0021.6829.9312 1.3037 2.0099 1.8624 3.236.5743 1.2261 1.133 2.491 1.6762 3.7947.5587 1.3037 1.1563 2.5143 1.7926 3.6317.2328.4346.4656.8614.6984 1.2805.2483.419.4889.838.7217 1.2571zm13.076 0v-34.5947h21.1153v5.4942h-13.8518v8.6836h10.4994v5.3777h-10.4994v9.4286h15.3185v5.6106zm35.0821 0v-29.0074h-9.8476v-5.5873h27.0286v5.5873h-9.8477v29.0074zm23.0232 0h-7.6592l12.5249-34.8974h7.8689l12.501 34.8974h-7.775l-7.659-24.491-1.071-4.0042-1.095 4.0042zm-.5587-7.3333.9545-5.1916h15.8768l.955 5.1916zm30.0853 7.3333v-34.5947h7.357v34.5947zm15.675 0v-34.5947h7.217v28.7513h12.501v5.8434zm32.374 0v-34.5947h20.929v5.4942h-13.642v9.4053h10.29v5.4476h-10.29v14.2476zm25.554 0v-34.5947h21.116v5.4942h-13.852v8.6836h10.499v5.3777h-10.499v9.4286h15.318v5.6106zm37.527.3725c-1.599 0-3.112-.1164-4.54-.3492s-2.662-.5122-3.702-.8381c-1.039-.3259-1.777-.6208-2.211-.8847l1.094-5.7735c.574.3414 1.327.6829 2.258 1.0243.947.3259 1.987.6053 3.12.8381 1.133.2173 2.274.3259 3.422.3259 1.847 0 3.22-.2871 4.121-.8613.9-.5743 1.35-1.4977 1.35-2.7704 0-.9002-.248-1.6529-.745-2.2582-.497-.6208-1.28-1.2261-2.351-1.8159-1.056-.5898-2.429-1.2882-4.121-2.0952-1.443-.6984-2.801-1.5288-4.074-2.491-1.273-.9623-2.305-2.1108-3.096-3.4455-.792-1.3348-1.188-2.8946-1.188-4.6794 0-1.6141.311-3.0032.932-4.1672.636-1.1795 1.505-2.1418 2.607-2.8868 1.102-.7605 2.375-1.3192 3.818-1.6762 1.459-.3569 3.019-.5354 4.679-.5354 2.39 0 4.354.225 5.89.6751 1.537.4501 2.608.8692 3.213 1.2572l-1.234 5.5407c-.729-.5277-1.738-1.001-3.026-1.4201-1.289-.4346-2.763-.6518-4.424-.6518-1.102 0-2.064.1319-2.886.3957-.807.2639-1.436.6519-1.886 1.164-.45.4967-.675 1.1097-.675 1.8392 0 .8691.209 1.6141.628 2.2349.435.6053 1.118 1.1951 2.049 1.7693.931.5588 2.142 1.2029 3.632 1.9323 1.35.6363 2.599 1.3037 3.748 2.0021 1.148.6829 2.157 1.4356 3.026 2.2582s1.545 1.7616 2.026 2.817c.481 1.0553.721 2.2659.721 3.6317 0 2.0797-.488 3.8646-1.466 5.3545-.978 1.4744-2.383 2.5996-4.214 3.3757-1.816.776-3.981 1.164-6.495 1.164zm24.792-.3725v-29.0074h-9.848v-5.5873h27.029v5.5873h-9.848v29.0074zm22.494 0v-34.5947h7.357v34.5947zm24.522.163-12.735-34.7577h7.752l6.542 19.6254 1.676 6.2624 1.677-6.2624 6.192-19.6254h7.706l-12.548 34.7577zm24.341-.163h-7.659l12.525-34.8974h7.868l12.502 34.8974h-7.776l-7.659-24.491-1.071-4.0042-1.094 4.0042zm-.559-7.3333.955-5.1916h15.877l.955 5.1916zm29.573 7.3333v-34.5947h7.217v28.7513h12.502v5.8434zm-356.41677 59.0004-.81482-2.747c1.44339-.963 2.91782-2.072 4.42328-3.33 1.50547-1.257 2.9411-2.607 4.30691-4.05 1.3658-1.444 2.5919-2.941 3.6783-4.494 1.0864-1.567 1.94-3.142 2.5608-4.725.6364-1.584.9545-3.136.9545-4.657 0-2.079-.5199-3.67-1.5598-4.772-1.0243-1.102-2.4599-1.653-4.3068-1.653-1.5831 0-3.05754.326-4.42332.978-1.35027.636-2.43669 1.389-3.25926 2.258l-2.25821-3.236c.6053-.636 1.41235-1.296 2.42117-1.979 1.02434-.698 2.24268-1.28 3.65503-1.746 1.41234-.481 2.99539-.721 4.74919-.721 2.4677 0 4.4854.473 6.0529 1.42 1.5831.946 2.7471 2.219 3.4921 3.818.745 1.598 1.1174 3.383 1.1174 5.354 0 2.328-.5664 4.687-1.6994 7.077-1.1175 2.39-2.6695 4.687-4.6561 6.891-1.9711 2.189-4.2526 4.183-6.8445 5.983l14.527-.209v4.54zm28.73677 0-.8148-2.747c1.4434-.963 2.9178-2.072 4.4233-3.33 1.5054-1.257 2.9411-2.607 4.3068-4.05 1.3658-1.444 2.5919-2.941 3.6784-4.494 1.0864-1.567 1.94-3.142 2.5608-4.725.6363-1.584.9545-3.136.9545-4.657 0-2.079-.5199-3.67-1.5598-4.772-1.0243-1.102-2.46-1.653-4.3069-1.653-1.583 0-3.0575.326-4.4233.978-1.3502.636-2.4366 1.389-3.2592 2.258l-2.2582-3.236c.6053-.636 1.4123-1.296 2.4212-1.979 1.0243-.698 2.2426-1.28 3.655-1.746 1.4123-.481 2.9954-.721 4.7492-.721 2.4677 0 4.4853.473 6.0529 1.42 1.5831.946 2.7471 2.219 3.4921 3.818.7449 1.598 1.1174 3.383 1.1174 5.354 0 2.328-.5665 4.687-1.6995 7.077-1.1174 2.39-2.6694 4.687-4.656 6.891-1.9711 2.189-4.2526 4.183-6.8445 5.983l14.527-.209v4.54zm37.5688-13.037v-4.331h19.3227v4.331zm35.5922 13.037-.815-2.747c1.443-.963 2.918-2.072 4.423-3.33 1.505-1.257 2.941-2.607 4.307-4.05 1.366-1.444 2.592-2.941 3.678-4.494 1.087-1.567 1.94-3.142 2.561-4.725.636-1.584.955-3.136.955-4.657 0-2.079-.52-3.67-1.56-4.772-1.025-1.102-2.46-1.653-4.307-1.653-1.583 0-3.058.326-4.423.978-1.351.636-2.437 1.389-3.26 2.258l-2.258-3.236c.605-.636 1.412-1.296 2.421-1.979 1.025-.698 2.243-1.28 3.655-1.746 1.413-.481 2.996-.721 4.75-.721 2.467 0 4.485.473 6.052 1.42 1.584.946 2.748 2.219 3.493 3.818.744 1.598 1.117 3.383 1.117 5.354 0 2.328-.567 4.687-1.7 7.077-1.117 2.39-2.669 4.687-4.656 6.891-1.971 2.189-4.252 4.183-6.844 5.983l14.527-.209v4.54zm28.504-13.037c0-2.499.38-4.835 1.14-7.008.761-2.188 1.785-4.183 3.073-5.983 1.304-1.816 2.778-3.407 4.424-4.772 1.645-1.366 3.36-2.484 5.145-3.353 1.8-.869 3.554-1.466 5.261-1.792l1.42 3.399c-2.142.574-4.097 1.458-5.867 2.654-1.769 1.179-3.298 2.568-4.586 4.167-1.288 1.583-2.297 3.275-3.026 5.075-.714 1.8-1.095 3.601-1.141 5.401-.062 2.095.085 4.051.442 5.867.373 1.8 1.056 3.251 2.049 4.353s2.398 1.653 4.214 1.653c1.412 0 2.584-.373 3.515-1.118s1.622-1.715 2.072-2.91c.466-1.21.698-2.498.698-3.864 0-1.847-.24-3.29-.721-4.33-.466-1.04-1.079-1.77-1.839-2.189-.761-.419-1.568-.628-2.422-.628-.9 0-1.691.116-2.374.349s-1.195.458-1.537.675l-1.373-3.189c.279-.28.721-.567 1.327-.862.605-.31 1.334-.574 2.188-.791.869-.217 1.839-.326 2.91-.326 1.987 0 3.671.465 5.052 1.397 1.381.931 2.429 2.173 3.143 3.725.729 1.536 1.094 3.22 1.094 5.051 0 1.646-.256 3.236-.768 4.773-.497 1.521-1.257 2.887-2.282 4.097-1.024 1.195-2.312 2.142-3.864 2.84-1.552.699-3.376 1.048-5.471 1.048-2.483 0-4.617-.613-6.402-1.839-1.77-1.226-3.128-2.856-4.074-4.889-.947-2.049-1.42-4.276-1.42-6.681zm40.345 13.037v-34.595h20.068v4.19h-14.574v10.942h10.896v4.191h-10.896v15.272zm24.599 0v-34.595h20.115v4.19h-14.621v10.523h10.849v4.144h-10.849v11.454h16.25v4.284zm27.812 0v-34.642l2.561.047c.76 0 1.536-.023 2.328-.07.791-.062 1.645-.116 2.561-.163.915-.062 1.94-.093 3.073-.093 2.654 0 4.834.341 6.542 1.024 1.707.683 2.972 1.645 3.794 2.887.823 1.226 1.234 2.67 1.234 4.33 0 1.087-.186 2.189-.559 3.306-.357 1.118-.923 2.103-1.699 2.957-.776.838-1.777 1.42-3.003 1.746 1.412.077 2.677.512 3.794 1.303 1.133.776 2.034 1.777 2.701 3.004.667 1.21 1.001 2.529 1.001 3.957 0 2.095-.419 3.95-1.257 5.564s-2.274 2.879-4.307 3.795-4.85 1.374-8.451 1.374c-1.35 0-2.747-.047-4.19-.14-1.444-.078-2.584-.14-3.422-.186zm5.401-19.812c.419.062.885.109 1.397.14.512.015 1.04.023 1.583.023.543-.016 1.063-.023 1.56-.023.512-.016.978-.024 1.397-.024 1.583 0 2.886-.512 3.911-1.536 1.04-1.024 1.559-2.592 1.559-4.703 0-1.754-.62-3.05-1.862-3.888s-3.019-1.257-5.331-1.257c-.28 0-.722.016-1.327.047-.59.015-1.164.046-1.723.093-.559.046-.947.109-1.164.186zm0 15.691c.264.155.722.272 1.374.349.651.078 1.35.132 2.095.163.76.016 1.412.023 1.955.023 2.499 0 4.455-.457 5.867-1.373s2.119-2.545 2.119-4.889c0-2.095-.637-3.616-1.909-4.563-1.258-.962-3.221-1.443-5.89-1.443-.435 0-.916 0-1.444 0-.512-.016-1.032-.016-1.56 0-.512 0-.993.007-1.443.023-.45.015-.838.046-1.164.093zm33.073 4.121-.815-2.747c1.444-.963 2.918-2.072 4.424-3.33 1.505-1.257 2.941-2.607 4.307-4.05 1.365-1.444 2.591-2.941 3.678-4.494 1.086-1.567 1.94-3.142 2.561-4.725.636-1.584.954-3.136.954-4.657 0-2.079-.52-3.67-1.56-4.772-1.024-1.102-2.46-1.653-4.306-1.653-1.584 0-3.058.326-4.424.978-1.35.636-2.436 1.389-3.259 2.258l-2.258-3.236c.605-.636 1.412-1.296 2.421-1.979 1.024-.698 2.243-1.28 3.655-1.746 1.412-.481 2.995-.721 4.749-.721 2.468 0 4.486.473 6.053 1.42 1.583.946 2.747 2.219 3.492 3.818.745 1.598 1.118 3.383 1.118 5.354 0 2.328-.567 4.687-1.7 7.077-1.117 2.39-2.669 4.687-4.656 6.891-1.971 2.189-4.253 4.183-6.844 5.983l14.527-.209v4.54zm40.726.372c-2.281 0-4.229-.497-5.843-1.49-1.599-.993-2.895-2.336-3.888-4.027-.993-1.708-1.715-3.648-2.165-5.82-.435-2.189-.636-4.47-.605-6.845.046-3.523.644-6.573 1.792-9.149 1.149-2.592 2.693-4.594 4.633-6.006 1.956-1.413 4.167-2.119 6.635-2.119 2.328 0 4.276.458 5.843 1.374 1.584.915 2.848 2.18 3.795 3.794.947 1.599 1.622 3.454 2.026 5.564.403 2.096.597 4.338.582 6.728-.031 3.57-.582 6.705-1.653 9.406-1.071 2.7-2.561 4.811-4.47 6.332-1.909 1.505-4.136 2.258-6.682 2.258zm.163-4.889c2.328.047 4.074-1.016 5.238-3.189s1.746-5.386 1.746-9.638c0-2.484-.24-4.687-.721-6.612-.481-1.924-1.234-3.438-2.258-4.54-1.009-1.117-2.313-1.676-3.912-1.676-2.297 0-4.05 1.056-5.261 3.166-1.195 2.111-1.793 5.114-1.793 9.01 0 2.405.249 4.625.745 6.658.497 2.033 1.258 3.671 2.282 4.912 1.024 1.226 2.336 1.863 3.934 1.909zm19.586 4.517-.815-2.747c1.443-.963 2.918-2.072 4.423-3.33 1.506-1.257 2.941-2.607 4.307-4.05 1.366-1.444 2.592-2.941 3.678-4.494 1.087-1.567 1.94-3.142 2.561-4.725.637-1.584.955-3.136.955-4.657 0-2.079-.52-3.67-1.56-4.772-1.024-1.102-2.46-1.653-4.307-1.653-1.583 0-3.057.326-4.423.978-1.35.636-2.437 1.389-3.259 2.258l-2.259-3.236c.606-.636 1.413-1.296 2.421-1.979 1.025-.698 2.243-1.28 3.656-1.746 1.412-.481 2.995-.721 4.749-.721 2.467 0 4.485.473 6.053 1.42 1.583.946 2.747 2.219 3.492 3.818.745 1.598 1.117 3.383 1.117 5.354 0 2.328-.566 4.687-1.699 7.077-1.118 2.39-2.67 4.687-4.656 6.891-1.971 2.189-4.253 4.183-6.845 5.983l14.527-.209v4.54zm28.504-13.037c0-2.499.38-4.835 1.14-7.008.761-2.188 1.785-4.183 3.073-5.983 1.304-1.816 2.779-3.407 4.424-4.772 1.645-1.366 3.36-2.484 5.145-3.353 1.8-.869 3.554-1.466 5.261-1.792l1.42 3.399c-2.142.574-4.097 1.458-5.866 2.654-1.77 1.179-3.299 2.568-4.587 4.167-1.288 1.583-2.297 3.275-3.026 5.075-.714 1.8-1.094 3.601-1.141 5.401-.062 2.095.085 4.051.442 5.867.373 1.8 1.056 3.251 2.049 4.353s2.398 1.653 4.214 1.653c1.412 0 2.584-.373 3.515-1.118s1.622-1.715 2.072-2.91c.466-1.21.699-2.498.699-3.864 0-1.847-.241-3.29-.722-4.33-.466-1.04-1.079-1.77-1.839-2.189-.761-.419-1.568-.628-2.421-.628-.901 0-1.692.116-2.375.349s-1.195.458-1.537.675l-1.373-3.189c.279-.28.722-.567 1.327-.862.605-.31 1.335-.574 2.188-.791.869-.217 1.839-.326 2.91-.326 1.987 0 3.671.465 5.052 1.397 1.381.931 2.429 2.173 3.143 3.725.729 1.536 1.094 3.22 1.094 5.051 0 1.646-.256 3.236-.768 4.773-.497 1.521-1.257 2.887-2.282 4.097-1.024 1.195-2.312 2.142-3.864 2.84-1.552.699-3.376 1.048-5.471 1.048-2.483 0-4.617-.613-6.402-1.839-1.769-1.226-3.127-2.856-4.074-4.889-.947-2.049-1.42-4.276-1.42-6.681z" fill="#000"/></svg>