<svg enable-background="new 0 0 652 652" viewBox="0 0 652 652" xmlns="http://www.w3.org/2000/svg" xmlns:xlink="http://www.w3.org/1999/xlink"><clipPath id="a"><path d="m185.5 215.5c0 79.3 64.3 143.6 143.6 143.6 46.4 0 87.6-22 113.9-56.1-15 8.8-32.5 13.8-51.1 13.8-56 0-101.4-45.4-101.4-101.4s45.4-101.4 101.4-101.4c18.6 0 36.1 5 51.1 13.8-26.3-34.1-67.5-56.1-113.9-56.1-79.3.2-143.6 64.5-143.6 143.8"/></clipPath><radialGradient id="b" cx="29.009" cy="746.626" gradientTransform="matrix(61.3586 0 0 -68.4523 -1515.528 51222.7383)" gradientUnits="userSpaceOnUse" r="4.2596"><stop offset="0" stop-color="#fff"/><stop offset=".3175" stop-color="#dcdcdc"/><stop offset="1" stop-color="#878787"/></radialGradient><clipPath id="c"><path d="m299.1 215.5c0 20.1 6.5 39.1 17.5 54.7 6.1 8.7 13.7 16.5 22.3 22.8 2.7.3 5.4.4 8.2.4 20.7 0 39.5-7.8 53.8-20.6 16.4-14.8 26.8-36.2 26.8-60 0-43.3-34.2-78.7-77.1-80.5-30.5 15.3-51.5 46.8-51.5 83.2"/></clipPath><radialGradient id="d" cx="31.5045" cy="745.3525" gradientTransform="matrix(22.916 0 0 -28.7256 -333.018 21605.4727)" gradientUnits="userSpaceOnUse" r="4.2596"><stop offset="0" stop-color="#fff"/><stop offset=".2692" stop-color="#b5c6de"/><stop offset=".3259" stop-color="#a7bcd8"/><stop offset="1" stop-color="#004b93"/></radialGradient><path d="m400.9 272.8c25.7 5.5 42.7 15.2 42.7 26.2 0 1.4-.3 2.9-.9 4.3-14.6 5.4-35.5 7.7-49.7 7.7-20.1 0-38.8-6.7-54.1-18 2.7.3 5.4.4 8.2.4 20.6 0 39.5-7.8 53.8-20.6" fill="#eae9ee"/><path clip-path="url(#a)" d="m185.5 71.9h257.5v287.2h-257.5z" fill="url(#b)"/><path clip-path="url(#c)" d="m299.1 132.3h128.5v161.1h-128.5z" fill="url(#d)"/><path d="m146.9 452.6v51.6c0 6.5 2.8 11.1 8.5 13.7 5.7 2.5 15.8 3.8 30.1 3.8h4.2c6.3 0 10.9-1.5 13.8-4.6 3-3.1 5.2-8.5 6.5-16.3l.3-1.9h7.9l-2.9 30.4h-107.7v-6.1h1.8c6.7 0 11.2-1.3 13.5-3.9 2.3-2.7 3.4-8 3.4-15.9v-100c0-8.4-1.1-13.8-3.2-16.3s-6.7-3.7-13.7-3.7h-1.8v-6.2h103.5l3.1 28.2h-7.9l-.3-2.1c-1.3-8.6-3.8-13.8-7.7-15.7-3.8-1.9-13.7-2.8-29.8-2.8h-21.7v61.5h23.4c10.8 0 17.7-.9 20.6-2.7 3-1.8 4.6-5.9 4.6-12.3v-1.7h7.8v39.5h-7.8v-1.5c0-5.7-1.2-9.9-3.7-12.3-2-2-9.2-2.9-21.4-2.9h-23.4zm106.8-7c5.6-4.2 11-7.4 16.3-9.5 5.3-2.2 10.5-3.2 15.5-3.2 11 0 19.9 4.3 26.9 12.8 6.9 8.5 10.4 19.5 10.4 33.1 0 13.7-3.4 24.9-10.3 33.7s-15.6 13.2-26.3 13.2c-5.7 0-11.6-1.4-17.6-4.3-5.9-2.9-10.9-6.7-14.9-11.4zm0 83.1c4.5 1.2 9 2.2 13.4 2.7 4.5.7 8.8 1 13.1 1 18.7 0 33.8-5.6 45.4-16.9 11.7-11.4 17.5-26.1 17.5-44.3 0-15.7-4.4-28.7-13.2-38.9-8.8-10.3-19.9-15.4-33.6-15.4-6.7 0-13.6 1.7-20.7 5.1s-14.4 8.5-21.9 15.3v-20.4l-37.6 13.7v1.5l6.1 2.4c5.8 2.3 9.4 4.8 10.7 7.5s2 8.6 2 17.8v86.2c0 8.1-1.2 13.4-3.4 15.9-2.3 2.5-7.1 3.8-14.4 3.8h-.9v6.1h56.5v-6.1h-1.3c-7.2 0-12-1.3-14.3-3.8-2.2-2.5-3.3-7.8-3.3-15.9v-17.3m162.9-11.9c-7.3 3.9-13 5.8-17.2 5.8-7.8 0-13.5-2.9-17.1-8.7-3.5-5.9-5.3-15.2-5.3-28.1v-58.2h36.1v-7.6h-36.1v-27.8l-37.3 35.4h18.5v61.4c0 15.7 2.5 26.8 7.4 33.5s13.1 10 24.7 10c9.2 0 17.9-2.3 26.3-6.9zm77.5-24.7c0 8-2.1 14.2-6.2 18.7-6.4 6.9-13.4 10.3-20.9 10.3-4.5 0-8.5-1.7-11.8-5.2s-4.9-7.5-4.9-12.2c0-7.2 2.4-12.7 7.3-16.5 4.9-3.9 15.2-8.2 30.8-12.9l5.8-1.8v19.6zm1.5 18c1.1 7.4 3.3 13 6.7 16.7s8 5.6 13.6 5.6c6.5 0 13.1-1.8 19.7-5.4v-5.8c-2.4.3-4.7.5-6.7.5-6.4 0-10.7-2-12.8-5.9-2.2-3.9-3.2-11.8-3.2-23.6v-46.4c0-10.2-2.5-17.6-7.6-22.1s-13.3-6.8-24.7-6.8c-13.7 0-25.2 3.4-34.5 10.3-9.4 7.1-14 14.5-14 22.3v2.9l21.7-6.8v-4.9c0-5.2 1.5-9 4.6-11.6s7.7-3.8 13.9-3.8c6 0 11 1.5 15.2 4.4 2.7 1.8 4.4 4.1 5.3 6.8.8 2.6 1.2 7.3 1.2 14v15.5l-13.8 3.9c-18 5-30.9 10.3-38.7 16.1-7.8 5.7-11.7 12.6-11.7 20.8 0 7.4 2.5 13.5 7.4 18.4 4.9 4.8 11.1 7.2 18.5 7.2s14.4-1.9 21-5.6 12.9-9.3 18.9-16.7" fill="#414b68"/></svg>