<?xml version="1.0" encoding="utf-8"?>
<!-- Generator: Adobe Illustrator 19.2.1, SVG Export Plug-In . SVG Version: 6.00 Build 0)  -->
<svg version="1.1" id="layer" xmlns="http://www.w3.org/2000/svg" xmlns:xlink="http://www.w3.org/1999/xlink" x="0px" y="0px"
	 viewBox="0 0 652 652" style="enable-background:new 0 0 652 652;" xml:space="preserve">
<style type="text/css">
	.st0{fill:#EAE9EE;}
	.st1{clip-path:url(#SVGID_2_);fill:url(#SVGID_3_);}
	.st2{clip-path:url(#SVGID_5_);fill:url(#SVGID_6_);}
	.st3{fill:#414B68;}
</style>
<path class="st0" d="M400.9,272.8c25.7,5.5,42.7,15.2,42.7,26.2c0,1.4-0.3,2.9-0.9,4.3c-14.6,5.4-35.5,7.7-49.7,7.7
	c-20.1,0-38.8-6.7-54.1-18c2.7,0.3,5.4,0.4,8.2,0.4C367.7,293.4,386.6,285.6,400.9,272.8"/>
<g>
	<defs>
		<path id="SVGID_1_" d="M185.5,215.5c0,79.3,64.3,143.6,143.6,143.6c46.4,0,87.6-22,113.9-56.1c-15,8.8-32.5,13.8-51.1,13.8
			c-56,0-101.4-45.4-101.4-101.4c0-56,45.4-101.4,101.4-101.4c18.6,0,36.1,5,51.1,13.8c-26.3-34.1-67.5-56.1-113.9-56.1
			C249.8,71.9,185.5,136.2,185.5,215.5"/>
	</defs>
	<clipPath id="SVGID_2_">
		<use xlink:href="#SVGID_1_"  style="overflow:visible;"/>
	</clipPath>
	
		<radialGradient id="SVGID_3_" cx="29.009" cy="746.626" r="4.2596" gradientTransform="matrix(61.3586 0 0 -68.4523 -1515.528 51222.7383)" gradientUnits="userSpaceOnUse">
		<stop  offset="0" style="stop-color:#FFFFFF"/>
		<stop  offset="0.3175" style="stop-color:#DCDCDC"/>
		<stop  offset="1" style="stop-color:#878787"/>
	</radialGradient>
	<rect x="185.5" y="71.9" class="st1" width="257.5" height="287.2"/>
</g>
<g>
	<defs>
		<path id="SVGID_4_" d="M299.1,215.5c0,20.1,6.5,39.1,17.5,54.7c6.1,8.7,13.7,16.5,22.3,22.8c2.7,0.3,5.4,0.4,8.2,0.4
			c20.7,0,39.5-7.8,53.8-20.6c16.4-14.8,26.8-36.2,26.8-60c0-43.3-34.2-78.7-77.1-80.5C320.1,147.6,299.1,179.1,299.1,215.5"/>
	</defs>
	<clipPath id="SVGID_5_">
		<use xlink:href="#SVGID_4_"  style="overflow:visible;"/>
	</clipPath>
	
		<radialGradient id="SVGID_6_" cx="31.5045" cy="745.3525" r="4.2596" gradientTransform="matrix(22.916 0 0 -28.7256 -333.018 21605.4727)" gradientUnits="userSpaceOnUse">
		<stop  offset="0" style="stop-color:#FFFFFF"/>
		<stop  offset="0.2692" style="stop-color:#B5C6DE"/>
		<stop  offset="0.3259" style="stop-color:#A7BCD8"/>
		<stop  offset="1" style="stop-color:#004B93"/>
	</radialGradient>
	<rect x="299.1" y="132.3" class="st2" width="128.5" height="161.1"/>
</g>
<path class="st3" d="M146.9,452.6v51.6c0,6.5,2.8,11.1,8.5,13.7c5.7,2.5,15.8,3.8,30.1,3.8h4.2c6.3,0,10.9-1.5,13.8-4.6
	c3-3.1,5.2-8.5,6.5-16.3l0.3-1.9h7.9l-2.9,30.4H107.6v-6.1h1.8c6.7,0,11.2-1.3,13.5-3.9c2.3-2.7,3.4-8,3.4-15.9v-100
	c0-8.4-1.1-13.8-3.2-16.3c-2.1-2.5-6.7-3.7-13.7-3.7h-1.8v-6.2h103.5l3.1,28.2h-7.9l-0.3-2.1c-1.3-8.6-3.8-13.8-7.7-15.7
	c-3.8-1.9-13.7-2.8-29.8-2.8h-21.7v61.5h23.4c10.8,0,17.7-0.9,20.6-2.7c3-1.8,4.6-5.9,4.6-12.3v-1.7h7.8v39.5h-7.8v-1.5
	c0-5.7-1.2-9.9-3.7-12.3c-2-2-9.2-2.9-21.4-2.9H146.9z M253.7,445.6c5.6-4.2,11-7.4,16.3-9.5c5.3-2.2,10.5-3.2,15.5-3.2
	c11,0,19.9,4.3,26.9,12.8c6.9,8.5,10.4,19.5,10.4,33.1c0,13.7-3.4,24.9-10.3,33.7c-6.9,8.8-15.6,13.2-26.3,13.2
	c-5.7,0-11.6-1.4-17.6-4.3c-5.9-2.9-10.9-6.7-14.9-11.4V445.6 M253.7,528.7c4.5,1.2,9,2.2,13.4,2.7c4.5,0.7,8.8,1,13.1,1
	c18.7,0,33.8-5.6,45.4-16.9c11.7-11.4,17.5-26.1,17.5-44.3c0-15.7-4.4-28.7-13.2-38.9c-8.8-10.3-19.9-15.4-33.6-15.4
	c-6.7,0-13.6,1.7-20.7,5.1c-7.1,3.4-14.4,8.5-21.9,15.3v-20.4l-37.6,13.7v1.5l6.1,2.4c5.8,2.3,9.4,4.8,10.7,7.5
	c1.3,2.7,2,8.6,2,17.8v86.2c0,8.1-1.2,13.4-3.4,15.9c-2.3,2.5-7.1,3.8-14.4,3.8h-0.9v6.1h56.5v-6.1h-1.3c-7.2,0-12-1.3-14.3-3.8
	c-2.2-2.5-3.3-7.8-3.3-15.9V528.7 M416.7,516.8c-7.3,3.9-13,5.8-17.2,5.8c-7.8,0-13.5-2.9-17.1-8.7c-3.5-5.9-5.3-15.2-5.3-28.1
	v-58.2h36.1V420h-36.1v-27.8l-37.3,35.4h18.5v61.4c0,15.7,2.5,26.8,7.4,33.5c4.9,6.7,13.1,10,24.7,10c9.2,0,17.9-2.3,26.3-6.9V516.8
	 M494.2,492.1c0,8-2.1,14.2-6.2,18.7c-6.4,6.9-13.4,10.3-20.9,10.3c-4.5,0-8.5-1.7-11.8-5.2c-3.3-3.5-4.9-7.5-4.9-12.2
	c0-7.2,2.4-12.7,7.3-16.5c4.9-3.9,15.2-8.2,30.8-12.9l5.8-1.8V492.1z M495.7,510.1c1.1,7.4,3.3,13,6.7,16.7c3.4,3.7,8,5.6,13.6,5.6
	c6.5,0,13.1-1.8,19.7-5.4v-5.8c-2.4,0.3-4.7,0.5-6.7,0.5c-6.4,0-10.7-2-12.8-5.9c-2.2-3.9-3.2-11.8-3.2-23.6v-46.4
	c0-10.2-2.5-17.6-7.6-22.1c-5.1-4.5-13.3-6.8-24.7-6.8c-13.7,0-25.2,3.4-34.5,10.3c-9.4,7.1-14,14.5-14,22.3v2.9l21.7-6.8v-4.9
	c0-5.2,1.5-9,4.6-11.6c3.1-2.6,7.7-3.8,13.9-3.8c6,0,11,1.5,15.2,4.4c2.7,1.8,4.4,4.1,5.3,6.8c0.8,2.6,1.2,7.3,1.2,14V466l-13.8,3.9
	c-18,5-30.9,10.3-38.7,16.1c-7.8,5.7-11.7,12.6-11.7,20.8c0,7.4,2.5,13.5,7.4,18.4c4.9,4.8,11.1,7.2,18.5,7.2c7.4,0,14.4-1.9,21-5.6
	C483.4,523.1,489.7,517.5,495.7,510.1"/>
</svg>
