<?xml version="1.0" encoding="UTF-8"?>
<svg width="26px" height="25px" viewBox="0 0 26 25" version="1.1" xmlns="http://www.w3.org/2000/svg" xmlns:xlink="http://www.w3.org/1999/xlink">
    <title>printer.fill</title>
    <g id="Page-1" stroke="none" stroke-width="1" fill="none" fill-rule="evenodd">
        <g id="printer.fill" fill="#000000" fill-rule="nonzero">
            <rect id="Rectangle" opacity="0" x="0" y="0" width="25.4955" height="24.8894"></rect>
            <path d="M18.4454625,4.76831 L5.93105825,4.76831 C6.06408508,3.2680013 6.98870482,2.57276 8.51754158,2.57276 L15.8661372,2.57276 C17.450798,2.57276 18.3211294,3.2680013 18.4454625,4.76831 Z" id="Path" fill-opacity="0.85"></path>
            <path d="M22,8.67798874 L22,15.3276918 C22,17.0764289 21.0471207,18 19.3100089,18 L19.0545663,18 L19.0545663,13.6594211 C19.0545663,12.4840291 18.1773137,11.6077813 17.0041195,11.6077813 L7.98271621,11.6077813 C6.81518332,11.6077813 5.93489544,12.4840291 5.93489544,13.6594211 L5.93489544,18 L5.69002525,18 C3.95293043,18 3,17.0764289 3,15.3276918 L3,8.67798874 C3,6.92930279 4.01235749,6 5.69002525,6 L19.3100089,6 C21.0471207,6 22,6.92930279 22,8.67798874 Z M16,9.00132697 C16,9.55218535 16.4505014,10 17.0036945,10 C17.5445224,10 18,9.54716398 18,9.00132697 C18,8.45548242 17.5445224,8 17.0036945,8 C16.4505014,8 16,8.45548242 16,9.00132697 Z" id="Shape" fill-opacity="0.85"></path>
            <path d="M7,20.7918796 C7,21.5179265 7.46786421,22 8.16653886,22 L16.8276212,22 C17.5321007,22 18,21.5179265 18,20.7918796 L18,13.8828225 C18,13.3489724 17.6555644,13 17.1347897,13 L7.85668711,13 C7.34174361,13 7,13.3489724 7,13.8828225 L7,20.7918796 Z M9.6026504,16 C9.25576554,16 9,15.7735875 9,15.4885962 C9,15.2128943 9.25320171,15 9.6026504,15 L14.4083387,15 C14.7442757,15 15,15.2128943 15,15.4885962 C15,15.7735875 14.7442757,16 14.4083387,16 L9.6026504,16 Z M9.6026504,19 C9.25320171,19 9,18.782461 9,18.5089081 C9,18.2218371 9.25576554,18 9.6026504,18 L14.4083387,18 C14.7442757,18 15,18.2218371 15,18.5089081 C15,18.782461 14.7442757,19 14.4083387,19 L9.6026504,19 Z" id="Shape" fill-opacity="0.85"></path>
        </g>
    </g>
</svg>