<svg height="25" viewBox="0 0 26 25" width="26" xmlns="http://www.w3.org/2000/svg"><g><path d="m0 0h25.4955v24.8894h-25.4955z" opacity="0"/><g fill-opacity=".85"><path d="m18.4454625 4.76831h-12.51440425c.13302683-1.5003087 1.05764657-2.19555 2.58648333-2.19555h7.34859562c1.5846608 0 2.4549922.6952413 2.5793253 2.19555z"/><path d="m22 8.67798874v6.64970306c0 1.7487371-.9528793 2.6723082-2.6899911 2.6723082h-.2554426v-4.3405789c0-1.175392-.8772526-2.0516398-2.0504468-2.0516398h-9.02140329c-1.16753289 0-2.04782077.8762478-2.04782077 2.0516398v4.3405789h-.24487019c-1.73709482 0-2.69002525-.9235711-2.69002525-2.6723082v-6.64970306c0-1.74868595 1.01235749-2.67798874 2.69002525-2.67798874h13.61998365c1.7371118 0 2.6899911.92930279 2.6899911 2.67798874zm-6 .32333823c0 .55085838.4505014.99867303 1.0036945.99867303.5408279 0 .9963055-.45283602.9963055-.99867303 0-.54584455-.4554776-1.00132697-.9963055-1.00132697-.5531931 0-1.0036945.45548242-1.0036945 1.00132697z"/><path d="m7 20.7918796c0 .7260469.46786421 1.2081204 1.16653886 1.2081204h8.66108234c.7044795 0 1.1723788-.4820735 1.1723788-1.2081204v-6.9090571c0-.5338501-.3444356-.8828225-.8652103-.8828225h-9.27810259c-.5149435 0-.85668711.3489724-.85668711.8828225zm2.6026504-4.7918796c-.34688486 0-.6026504-.2264125-.6026504-.5114038 0-.2757019.25320171-.4885962.6026504-.4885962h4.8056883c.335937 0 .5916613.2128943.5916613.4885962 0 .2849913-.2557243.5114038-.5916613.5114038zm0 3c-.34944869 0-.6026504-.217539-.6026504-.4910919 0-.287071.25576554-.5089081.6026504-.5089081h4.8056883c.335937 0 .5916613.2218371.5916613.5089081 0 .2735529-.2557243.4910919-.5916613.4910919z"/></g></g></svg>