<?xml version="1.0" encoding="UTF-8"?>
<svg width="26px" height="25px" viewBox="0 0 26 25" version="1.1" xmlns="http://www.w3.org/2000/svg" xmlns:xlink="http://www.w3.org/1999/xlink">
    <title>qrcode</title>
    <g id="Page-1" stroke="none" stroke-width="1" fill="none" fill-rule="evenodd">
        <g id="qrcode" fill="#000000" fill-rule="nonzero">
            <rect id="Rectangle" opacity="0" x="0" y="0" width="25.5" height="25"></rect>
            <path d="M6.27825,11.50124 L10.20656,11.50124 C11.74181,11.50124 12.48171,10.75824 12.48171,9.18969 L12.48171,5.32442 C12.48171,3.752771 11.74181,3.0195312 10.20656,3.0195312 L6.27825,3.0195312 C4.743005,3.0195312 4,3.752771 4,5.32442 L4,9.18969 C4,10.75824 4.743005,11.50124 6.27825,11.50124 Z M6.20152,9.83238 C5.83798,9.83238 5.66886,9.6566 5.66886,9.27975 L5.66886,5.23437 C5.66886,4.86107 5.83798,4.68839 6.20152,4.68839 L10.27664,4.68839 C10.64018,4.68839 10.81596,4.86107 10.81596,5.23437 L10.81596,9.27975 C10.81596,9.6566 10.64018,9.83238 10.27664,9.83238 L6.20152,9.83238 Z M7.3358,8.36652 L9.13304,8.36652 C9.28218,8.36652 9.34699,8.30171 9.34699,8.12328 L9.34699,6.38107 C9.34699,6.2124 9.28218,6.1476 9.13304,6.1476 L7.3358,6.1476 C7.1831,6.1476 7.12806,6.2124 7.12806,6.38107 L7.12806,8.12328 C7.12806,8.30171 7.1831,8.36652 7.3358,8.36652 Z M16.2196,11.50124 L20.1412,11.50124 C21.6765,11.50124 22.4195,10.75824 22.4195,9.18969 L22.4195,5.32442 C22.4195,3.752771 21.6765,3.0195312 20.1412,3.0195312 L16.2196,3.0195312 C14.6777,3.0195312 13.93777,3.752771 13.93777,5.32442 L13.93777,9.18969 C13.93777,10.75824 14.6777,11.50124 16.2196,11.50124 Z M16.1428,9.83238 C15.7726,9.83238 15.6035,9.6566 15.6035,9.27975 L15.6035,5.23437 C15.6035,4.86107 15.7726,4.68839 16.1428,4.68839 L20.218,4.68839 C20.5815,4.68839 20.7506,4.86107 20.7506,5.23437 L20.7506,9.27975 C20.7506,9.6566 20.5815,9.83238 20.218,9.83238 L16.1428,9.83238 Z M17.3166,8.36652 L19.1108,8.36652 C19.2697,8.36652 19.3314,8.30171 19.3314,8.12328 L19.3314,6.38107 C19.3314,6.2124 19.2697,6.1476 19.1108,6.1476 L17.3166,6.1476 C17.1675,6.1476 17.1156,6.2124 17.1156,6.38107 L17.1156,8.12328 C17.1156,8.30171 17.1675,8.36652 17.3166,8.36652 Z M6.27825,21.439 L10.20656,21.439 C11.74181,21.439 12.48171,20.7027 12.48171,19.131 L12.48171,15.2591 C12.48171,13.6972 11.74181,12.9542 10.20656,12.9542 L6.27825,12.9542 C4.743005,12.9542 4,13.6972 4,15.2591 L4,19.131 C4,20.7027 4.743005,21.439 6.27825,21.439 Z M6.20152,19.7702 C5.83798,19.7702 5.66886,19.5944 5.66886,19.2242 L5.66886,15.1757 C5.66886,14.7988 5.83798,14.6231 6.20152,14.6231 L10.27664,14.6231 C10.64018,14.6231 10.81596,14.7988 10.81596,15.1757 L10.81596,19.2242 C10.81596,19.5944 10.64018,19.7702 10.27664,19.7702 L6.20152,19.7702 Z M7.3358,18.3078 L9.13304,18.3078 C9.28218,18.3078 9.34699,18.2461 9.34699,18.0579 L9.34699,16.3224 C9.34699,16.1537 9.28218,16.092 9.13304,16.092 L7.3358,16.092 C7.1831,16.092 7.12806,16.1537 7.12806,16.3224 L7.12806,18.0579 C7.12806,18.2461 7.1831,18.3078 7.3358,18.3078 Z M14.6391,15.6201 L16.4363,15.6201 C16.5855,15.6201 16.6503,15.5584 16.6503,15.38 L16.6503,13.6378 C16.6503,13.466 16.5855,13.4043 16.4363,13.4043 L14.6391,13.4043 C14.4864,13.4043 14.4314,13.466 14.4314,13.6378 L14.4314,15.38 C14.4314,15.5584 14.4864,15.6201 14.6391,15.6201 Z M19.8992,15.6201 L21.6933,15.6201 C21.8456,15.6201 21.9073,15.5584 21.9073,15.38 L21.9073,13.6378 C21.9073,13.466 21.8456,13.4043 21.6933,13.4043 L19.8992,13.4043 C19.7434,13.4043 19.6914,13.466 19.6914,13.6378 L19.6914,15.38 C19.6914,15.5584 19.7434,15.6201 19.8992,15.6201 Z M17.2936,18.2551 L19.0877,18.2551 C19.2399,18.2551 19.3047,18.1902 19.3047,18.0051 L19.3047,16.2696 C19.3047,16.1009 19.2399,16.0361 19.0877,16.0361 L17.2936,16.0361 C17.1377,16.0361 17.0858,16.1009 17.0858,16.2696 L17.0858,18.0051 C17.0858,18.1902 17.1377,18.2551 17.2936,18.2551 Z M14.6391,20.8802 L16.4363,20.8802 C16.5855,20.8802 16.6503,20.8154 16.6503,20.637 L16.6503,18.8948 C16.6503,18.7261 16.5855,18.6613 16.4363,18.6613 L14.6391,18.6613 C14.4864,18.6613 14.4314,18.7261 14.4314,18.8948 L14.4314,20.637 C14.4314,20.8154 14.4864,20.8802 14.6391,20.8802 Z M19.8992,20.8802 L21.6933,20.8802 C21.8456,20.8802 21.9073,20.8154 21.9073,20.637 L21.9073,18.8948 C21.9073,18.7261 21.8456,18.6613 21.6933,18.6613 L19.8992,18.6613 C19.7434,18.6613 19.6914,18.7261 19.6914,18.8948 L19.6914,20.637 C19.6914,20.8154 19.7434,20.8802 19.8992,20.8802 Z" id="Shape" fill-opacity="0.85"></path>
        </g>
    </g>
</svg>