<svg height="25" viewBox="0 0 26 25" width="26" xmlns="http://www.w3.org/2000/svg"><path d="m0 0h25.5v25h-25.5z" opacity="0"/><path d="m6.27825 11.50124h3.92831c1.53525 0 2.27515-.743 2.27515-2.31155v-3.86527c0-1.571649-.7399-2.3048888-2.27515-2.3048888h-3.92831c-1.535245 0-2.27825.7332398-2.27825 2.3048888v3.86527c0 1.56855.743005 2.31155 2.27825 2.31155zm-.07673-1.66886c-.36354 0-.53266-.17578-.53266-.55263v-4.04538c0-.3733.16912-.54598.53266-.54598h4.07512c.36354 0 .53932.17268.53932.54598v4.04538c0 .37685-.17578.55263-.53932.55263zm1.13428-1.46586h1.79724c.14914 0 .21395-.06481.21395-.24324v-1.74221c0-.16867-.06481-.23347-.21395-.23347h-1.79724c-.1527 0-.20774.0648-.20774.23347v1.74221c0 .17843.05504.24324.20774.24324zm8.8838 3.13472h3.9216c1.5353 0 2.2783-.743 2.2783-2.31155v-3.86527c0-1.571649-.743-2.3048888-2.2783-2.3048888h-3.9216c-1.5419 0-2.28183.7332398-2.28183 2.3048888v3.86527c0 1.56855.73993 2.31155 2.28183 2.31155zm-.0768-1.66886c-.3702 0-.5393-.17578-.5393-.55263v-4.04538c0-.3733.1691-.54598.5393-.54598h4.0752c.3635 0 .5326.17268.5326.54598v4.04538c0 .37685-.1691.55263-.5326.55263zm1.1738-1.46586h1.7942c.1589 0 .2206-.06481.2206-.24324v-1.74221c0-.16867-.0617-.23347-.2206-.23347h-1.7942c-.1491 0-.201.0648-.201.23347v1.74221c0 .17843.0519.24324.201.24324zm-11.03835 13.07248h3.92831c1.53525 0 2.27515-.7363 2.27515-2.308v-3.8719c0-1.5619-.7399-2.3049-2.27515-2.3049h-3.92831c-1.535245 0-2.27825.743-2.27825 2.3049v3.8719c0 1.5717.743005 2.308 2.27825 2.308zm-.07673-1.6688c-.36354 0-.53266-.1758-.53266-.546v-4.0485c0-.3769.16912-.5526.53266-.5526h4.07512c.36354 0 .53932.1757.53932.5526v4.0485c0 .3702-.17578.546-.53932.546zm1.13428-1.4624h1.79724c.14914 0 .21395-.0617.21395-.2499v-1.7355c0-.1687-.06481-.2304-.21395-.2304h-1.79724c-.1527 0-.20774.0617-.20774.2304v1.7355c0 .1882.05504.2499.20774.2499zm7.3033-2.6877h1.7972c.1492 0 .214-.0617.214-.2401v-1.7422c0-.1718-.0648-.2335-.214-.2335h-1.7972c-.1527 0-.2077.0617-.2077.2335v1.7422c0 .1784.055.2401.2077.2401zm5.2601 0h1.7941c.1523 0 .214-.0617.214-.2401v-1.7422c0-.1718-.0617-.2335-.214-.2335h-1.7941c-.1558 0-.2078.0617-.2078.2335v1.7422c0 .1784.052.2401.2078.2401zm-2.6056 2.635h1.7941c.1522 0 .217-.0649.217-.25v-1.7355c0-.1687-.0648-.2335-.217-.2335h-1.7941c-.1559 0-.2078.0648-.2078.2335v1.7355c0 .1851.0519.25.2078.25zm-2.6545 2.6251h1.7972c.1492 0 .214-.0648.214-.2432v-1.7422c0-.1687-.0648-.2335-.214-.2335h-1.7972c-.1527 0-.2077.0648-.2077.2335v1.7422c0 .1784.055.2432.2077.2432zm5.2601 0h1.7941c.1523 0 .214-.0648.214-.2432v-1.7422c0-.1687-.0617-.2335-.214-.2335h-1.7941c-.1558 0-.2078.0648-.2078.2335v1.7422c0 .1784.052.2432.2078.2432z" fill-opacity=".85"/></svg>