<svg height="25" viewBox="0 0 25 25" width="25" xmlns="http://www.w3.org/2000/svg"><path d="m8.79074 21.3741c4.85566 0 8.78766-3.9351 8.78766-8.7974 0-.5943-.4851-1.0825-1.0794-1.0825-.5974 0-1.0891.4882-1.0891 1.0825 0 3.6542-2.9649 6.6191-6.61916 6.6191-3.65737 0-6.61913-2.9649-6.61913-6.6191 0-3.65741 2.96176-6.61918 6.61913-6.61918.76045 0 1.49116.12831 2.16946.36803.6502.23569 1.4629-.16552 1.4695-.99769.0067-.5912-.4203-.92892-.8237-1.06073-.8674-.30764-1.82003-.47455-2.81526-.47455-4.85879 0-8.79074 3.93505-8.79074 8.79072 0 4.8557 3.93195 8.7908 8.79074 8.7908zm2.44156-16.24196-3.42384 3.39186c-.20018.18996-.30225.42254-.30225.71457 0 .60138.46246 1.06743 1.05052 1.06743.30625 0 .55035-.1097.74342-.2961l4.00165-4.03983c.2317-.23168.3409-.49531.3409-.794 0-.28937-.1189-.56943-.3409-.7909l-3.99499-4.0665c-.20594-.202381-.44383-.31867-.75008-.31867-.58806 0-1.05052.485544-1.05052 1.08337 0 .29203.09586.54414.29559.72789z" fill="#343846" transform="translate(4 2)"/></svg>