<svg fill="none" height="624" viewBox="0 0 623 624" width="623" xmlns="http://www.w3.org/2000/svg"><g stroke="#fff" stroke-opacity=".4" stroke-width="17.222"><path d="m.00014752 101.078c288.03585248 0 521.53485248 233.499 521.53485248 521.535"/><path d="m.816507 54.0312c313.569493 0 567.767493 254.1978 567.767493 567.7678"/><path d="m.814794 146.496c262.502206 0 475.302206 212.8 475.302206 475.303"/><path d="m.00038701 193.539c236.96861299 0 429.06961299 192.101 429.06961299 429.07"/><path d="m.812884 238.961c211.435116 0 382.838116 171.402 382.838116 382.838"/><path d="m.00242877 286.004c185.90157123 0 336.60557123 150.703 336.60557123 336.605"/><path d="m.813067 331.426c160.367933 0 290.372933 130.004 290.372933 290.372"/><path d="m.00071269 378.465c134.83528731 0 244.14028731 109.305 244.14028731 244.14"/><path d="m.811312 424.887c109.301688 0 197.907688 88.606 197.907688 197.907"/><path d="m.00277293 471.93c83.76782707 0 151.67522707 67.907 151.67522707 151.675"/><path d="m.811481 517.352c58.234319 0 105.442519 47.208 105.442519 105.442"/><path d="m.00001621 8.60935c339.10298379.00001 613.99998379 274.89765 613.99998379 614.00065"/></g></svg>