<svg width="623" height="624" viewBox="0 0 623 624" fill="none" xmlns="http://www.w3.org/2000/svg">
<path d="M0.000147522 101.078C288.036 101.078 521.535 334.577 521.535 622.613" stroke="white" stroke-opacity="0.4" stroke-width="17.222"/>
<path d="M0.816507 54.0312C314.386 54.0312 568.584 308.229 568.584 621.799" stroke="white" stroke-opacity="0.4" stroke-width="17.222"/>
<path d="M0.814794 146.496C263.317 146.496 476.117 359.296 476.117 621.799" stroke="white" stroke-opacity="0.4" stroke-width="17.222"/>
<path d="M0.000387014 193.539C236.969 193.539 429.07 385.64 429.07 622.609" stroke="white" stroke-opacity="0.4" stroke-width="17.222"/>
<path d="M0.812884 238.961C212.248 238.961 383.651 410.363 383.651 621.799" stroke="white" stroke-opacity="0.4" stroke-width="17.222"/>
<path d="M0.00242877 286.004C185.904 286.004 336.608 436.707 336.608 622.609" stroke="white" stroke-opacity="0.4" stroke-width="17.222"/>
<path d="M0.813067 331.426C161.181 331.426 291.186 461.43 291.186 621.798" stroke="white" stroke-opacity="0.4" stroke-width="17.222"/>
<path d="M0.000712693 378.465C134.836 378.465 244.141 487.77 244.141 622.605" stroke="white" stroke-opacity="0.4" stroke-width="17.222"/>
<path d="M0.811312 424.887C110.113 424.887 198.719 513.493 198.719 622.794" stroke="white" stroke-opacity="0.4" stroke-width="17.222"/>
<path d="M0.00277293 471.93C83.7706 471.93 151.678 539.837 151.678 623.605" stroke="white" stroke-opacity="0.4" stroke-width="17.222"/>
<path d="M0.811481 517.352C59.0458 517.352 106.254 564.56 106.254 622.794" stroke="white" stroke-opacity="0.4" stroke-width="17.222"/>
<path d="M1.62131e-05 8.60935C339.103 8.60936 614 283.507 614 622.61" stroke="white" stroke-opacity="0.4" stroke-width="17.222"/>
</svg>
